Coordinates
version=1
nRows=14
nColumns=24
inDegrees=yes

Units are S.I. units (second, meters, Newtons, ...)
Angles are in degrees.

endheader
time	pelvis_tilt	pelvis_list	pelvis_rotation	pelvis_tx	pelvis_ty	pelvis_tz	hip_flexion_r	hip_adduction_r	hip_rotation_r	knee_angle_r	ankle_angle_r	subtalar_angle_r	mtp_angle_r	hip_flexion_l	hip_adduction_l	hip_rotation_l	knee_angle_l	ankle_angle_l	subtalar_angle_l	mtp_angle_l	lumbar_extension	lumbar_bending	lumbar_rotation
      5.26000000	     -8.69523216	     -8.10561730	      2.26656852	     -0.73184846	     -0.01653184	      2.07176165	      4.81293042	     13.86973225	     -9.65912032	     -7.81520126	      4.19388667	     -3.20020610	     11.56782176	     36.78943377	     -5.46138884	      3.59984245	    -43.91358654	     -3.73141611	     -6.91981364	     30.46208548	      4.35402339	      7.16361707	     -0.70528145
      5.27000000	     -8.85305432	     -7.83985645	      2.23227376	     -0.72038617	     -0.01751261	      2.07224844	      3.92081436	     13.70602174	     -9.61324373	     -7.32191999	      4.64211996	     -3.08840472	     11.64414840	     37.36507976	     -5.11921496	      2.99761741	    -41.00853123	     -3.42132201	     -6.15020737	     30.38835196	      4.39287442	      6.85107623	     -0.52067265
      5.28000000	     -8.94554305	     -7.56938371	      2.16543302	     -0.70894082	     -0.01854804	      2.07272296	      2.97440879	     13.52941519	     -9.62665490	     -6.86870777	      5.09210355	     -2.87103943	     11.71499416	     37.74785602	     -4.84866931	      2.19014330	    -37.93314958	     -3.28012989	     -5.14563150	     30.63327682	      4.33906891	      6.53941880	     -0.27834528
      5.29000000	     -8.90980292	     -7.26096210	      2.20366183	     -0.69737951	     -0.01957752	      2.07296128	      1.86401348	     13.30064920	     -9.69075890	     -6.37558454	      5.56821697	     -2.60689990	     11.72497440	     37.84625621	     -4.49343584	      1.34606183	    -34.64214086	     -3.49249741	     -4.20596020	     31.76292311	      4.16433994	      6.19017156	     -0.17173607
      5.30000000	     -8.99514893	     -7.02981972	      2.20430386	     -0.68582493	     -0.02089759	      2.07318101	      0.93675037	     13.14273711	     -9.83805038	     -5.97896018	      6.06265929	     -2.27512975	     11.60788152	     37.99452628	     -4.23579057	      0.39522369	    -31.30895629	     -3.77837416	     -3.10705897	     32.96766123	      4.10964831	      5.92317173	     -0.05012346
      5.31000000	     -9.19503704	     -6.89499348	      2.19920573	     -0.67423509	     -0.02250043	      2.07330698	      0.18587546	     13.07598675	    -10.06344992	     -5.66899170	      6.51313905	     -1.95579748	     11.55156920	     38.21606678	     -4.03998244	     -0.53559257	    -28.05677346	     -3.92426310	     -1.86728978	     33.23758932	      4.17943125	      5.75918045	      0.06169371
      5.32000000	     -9.15236851	     -6.66524626	      2.32398864	     -0.66247183	     -0.02385383	      2.07313955	     -0.81588946	     12.89447618	    -10.45300926	     -5.39730631	      7.02033352	     -1.49327114	     11.33255252	     38.02298345	     -3.63283794	     -1.28746835	    -24.71832889	     -4.28472660	     -1.08749924	     33.50887460	      4.00712697	      5.49891296	      0.08096620
      5.33000000	     -9.21870326	     -6.48050703	      2.34644613	     -0.65065423	     -0.02537856	      2.07294977	     -1.60759290	     12.73347300	    -10.83831319	     -5.32029257	      7.52420868	     -0.97351965	     11.17150316	     37.89214090	     -3.29024836	     -2.04952992	    -21.51585147	     -4.56635737	     -0.52541000	     33.37434698	      3.94387086	      5.30689656	      0.12402144
      5.34000000	     -9.20323960	     -6.26342704	      2.40541756	     -0.63867235	     -0.02685211	      2.07259147	     -2.42231987	     12.50771626	    -11.30605109	     -5.39117844	      8.05960920	     -0.32970478	     10.98199126	     37.60317811	     -2.85760595	     -2.58393214	    -18.44776371	     -4.78503913	     -0.26805002	     32.94492224	      3.80595037	      5.08656520	      0.15517796
      5.35000000	     -9.19160218	     -6.02682135	      2.40329659	     -0.62654499	     -0.02832863	      2.07218697	     -3.14430048	     12.21851511	    -11.76883309	     -5.66529796	      8.60671629	      0.41740535	     10.80257066	     37.27106065	     -2.42631544	     -3.02780475	    -15.60255322	     -4.86081675	     -0.14801683	     32.21465175	      3.67790540	      4.85759667	      0.24758506
      5.36000000	     -9.09327626	     -5.75483822	      2.48584615	     -0.61420101	     -0.02973981	      2.07162229	     -3.89333889	     11.85608565	    -12.32653687	     -6.09086959	      9.17871673	      1.28420284	     10.51205183	     36.83292328	     -1.91595926	     -3.27010089	    -13.08562799	     -4.66673424	      0.08843833	     30.76133789	      3.48090831	      4.58298930	      0.24461026
      5.37000000	     -9.17508009	     -5.48576018	      2.33819183	     -0.60174884	     -0.03119634	      2.07116695	     -4.34307329	     11.43473932	    -12.56701613	     -6.75723426	      9.65260050	      2.01351654	     10.10282918	     36.58087405	     -1.52361205	     -3.56472121	    -10.99405099	     -4.23862836	      0.35589601	     28.00250356	      3.46826782	      4.34239243	      0.40501906
      5.38000000	     -9.27877715	     -5.22938276	      2.18147276	     -0.58900853	     -0.03266596	      2.07073809	     -4.71125991	     10.97625181	    -12.89787592	     -7.56248876	     10.04780362	      2.96137400	     10.18717123	     36.36244475	     -1.19655259	     -3.98704185	     -9.27896985	     -3.91064442	      0.92909372	     27.48453990	      3.51245935	      4.10090510	      0.58443902
      5.39000000	     -9.32788251	     -4.94274159	      1.98945221	     -0.57603716	     -0.03397367	      2.07028462	     -5.08943175	     10.44171902	    -13.12542241	     -8.49034292	     10.33359934	      3.93154730	     10.24342811	     36.09716517	     -0.87256992	     -4.35620967	     -8.06340561	     -3.52996203	      1.50040343	     26.79003264	      3.51636489	      3.83171707	      0.74489297
